/* XPM */
static char *XPM_icon[] = {
"24 16 17 1 12 8",
"  c None",
"s c #000000",
"S c #6272a4",
"r c #ff5555",
"R c #ff6e67",
"g c #50fa7b",
"G c #5af78e",
"y c #f1fa8c",
"Y c #f4f99d",
"b c #bd93f9",
"B c #caa9fa",
"m c #ff79c6",
"M c #ff92d0",
"c c #8be9fd",
"C c #9aedfe",
"w c #f8f8f2",
"W c #e6e6e6",
"                        ",
" wwwwwwwwwwwwwwwwwwww   ",
" w                  w   ",
" w SSSSSS           w   ",
" w SSSSSS           www ",
" w SSSSSS             w ",
" w SSSSSS             w ",
" w SSSSSS             w ",
" w SSSSSS             w ",
" w SSSSSS             w ",
" w SSSSSS             w ",
" w SSSSSS           www ",
" w SSSSSS           w   ",
" w                  w   ",
" wwwwwwwwwwwwwwwwwwww   ",
"                        ",
};
