/* XPM */
static char *XPM_icon[] = {
"24 18 17 1 12 9",
"  c None",
"s c #000000",
"S c #6272a4",
"r c #ff5555",
"R c #ff6e67",
"g c #50fa7b",
"G c #5af78e",
"y c #f1fa8c",
"Y c #f4f99d",
"b c #bd93f9",
"B c #caa9fa",
"m c #ff79c6",
"M c #ff92d0",
"c c #8be9fd",
"C c #9aedfe",
"w c #f8f8f2",
"W c #e6e6e6",
^"     s            s     ",
^"     s wwww  wwww s     ",
^"     s w  w  w  w s     ",
^"     s w  w  w  w s     ",
^"     s wwww  wwww s     ",
^"     s            s     ",
^"     s            s     ",
^"     s       wwww s     ",
^"     s  ww   w  w s     ",
^"     s  ww   w  w s     ",
^"     s       wwww s     ",
^"     s            s     ",
^"     s            s     ",
^"     s            s     ",
^"     s  ww    ww  s     ",
^"     s  ww    ww  s     ",
^"     s            s     ",
^"     s            s     ",
};
